HIERARCHY
ROOT Hips
{
	OFFSET 0.000000 97.167313 0.000000
	CHANNELS 6 Xposition Yposition Zposition Xrotation Yrotation Zrotation
	JOINT Spine
	{
		OFFSET 0.000000 13.784798 0.064400
		CHANNELS 3 Xrotation Yrotation Zrotation
		JOINT Spine1
		{
			OFFSET 0.000000 12.037903 0.404700
			CHANNELS 3 Xrotation Yrotation Zrotation
			JOINT Spine2
			{
				OFFSET 0.000000 17.795601 0.420200
				CHANNELS 3 Xrotation Yrotation Zrotation
				JOINT Neck
				{
					OFFSET 0.000000 39.131302 11.954600
					CHANNELS 3 Xrotation Yrotation Zrotation
					JOINT Head
					{
						OFFSET 0.000000 14.456192 15.627699
						CHANNELS 3 Xrotation Yrotation Zrotation
						JOINT HeadTop_End
						{
							OFFSET 0.000000 15.703506 7.603401
							CHANNELS 3 Xrotation Yrotation Zrotation
							End Site
							{
								OFFSET 0.000000 17.447403 0.000000
							}
						}
					}
				}
				JOINT LeftShoulder
				{
					OFFSET 17.399500 24.608795 1.168800
					CHANNELS 3 Xrotation Yrotation Zrotation
					JOINT LeftArm
					{
						OFFSET 18.980635 5.765305 1.818600
						CHANNELS 3 Xrotation Yrotation Zrotation
						JOINT LeftForeArm
						{
							OFFSET 49.290169 0.000000 0.000000
							CHANNELS 3 Xrotation Yrotation Zrotation
							JOINT LeftHand
							{
								OFFSET 31.562012 0.000000 0.000000
								CHANNELS 3 Xrotation Yrotation Zrotation
								JOINT LeftHandThumb1
								{
									OFFSET 6.133995 -4.388519 7.076070
									CHANNELS 3 Xrotation Yrotation Zrotation
									JOINT LeftHandThumb2
									{
										OFFSET 6.037666 -3.485840 3.485847
										CHANNELS 3 Xrotation Yrotation Zrotation
										JOINT LeftHandThumb3
										{
											OFFSET 6.496506 -3.750763 3.750761
											CHANNELS 3 Xrotation Yrotation Zrotation
											JOINT LeftHandThumb4
											{
												OFFSET 5.616882 -3.242905 3.242910
												CHANNELS 3 Xrotation Yrotation Zrotation
												End Site
												{
													OFFSET -1.254608 7.132141 0.375429
												}
											}
										}
									}
								}
								JOINT LeftHandPinky1
								{
									OFFSET 18.920792 -0.453171 -11.426712
									CHANNELS 3 Xrotation Yrotation Zrotation
									JOINT LeftHandPinky2
									{
										OFFSET 4.919586 0.000000 0.000000
										CHANNELS 3 Xrotation Yrotation Zrotation
										JOINT LeftHandPinky3
										{
											OFFSET 5.233047 0.000000 0.000000
											CHANNELS 3 Xrotation Yrotation Zrotation
											JOINT LeftHandPinky4
											{
												OFFSET 5.571716 0.000000 0.000000
												CHANNELS 3 Xrotation Yrotation Zrotation
												End Site
												{
													OFFSET -3.459808 4.342407 -0.466164
												}
											}
										}
									}
								}
								JOINT LeftHandRing1
								{
									OFFSET 22.726120 -0.094986 -6.500475
									CHANNELS 3 Xrotation Yrotation Zrotation
									JOINT LeftHandRing2
									{
										OFFSET 6.408615 0.000000 0.000000
										CHANNELS 3 Xrotation Yrotation Zrotation
										JOINT LeftHandRing3
										{
											OFFSET 6.150223 0.000000 0.000000
											CHANNELS 3 Xrotation Yrotation Zrotation
											JOINT LeftHandRing4
											{
												OFFSET 6.145386 0.000000 0.000000
												CHANNELS 3 Xrotation Yrotation Zrotation
												End Site
												{
													OFFSET -3.671402 4.923981 -0.202372
												}
											}
										}
									}
								}
								JOINT LeftHandMiddle1
								{
									OFFSET 23.373947 0.000000 0.000001
									CHANNELS 3 Xrotation Yrotation Zrotation
									JOINT LeftHandMiddle2
									{
										OFFSET 6.996567 0.000000 0.000000
										CHANNELS 3 Xrotation Yrotation Zrotation
										JOINT LeftHandMiddle3
										{
											OFFSET 7.015945 0.000000 0.000000
											CHANNELS 3 Xrotation Yrotation Zrotation
											JOINT LeftHandMiddle4
											{
												OFFSET 7.721573 0.000000 0.000000
												CHANNELS 3 Xrotation Yrotation Zrotation
												End Site
												{
													OFFSET -4.651108 6.158463 0.251582
												}
											}
										}
									}
								}
								JOINT LeftHandIndex1
								{
									OFFSET 21.310577 -0.490082 6.209344
									CHANNELS 3 Xrotation Yrotation Zrotation
									JOINT LeftHandIndex2
									{
										OFFSET 7.536453 0.000000 0.000000
										CHANNELS 3 Xrotation Yrotation Zrotation
										JOINT LeftHandIndex3
										{
											OFFSET 7.512344 0.000000 0.000000
											CHANNELS 3 Xrotation Yrotation Zrotation
											JOINT LeftHandIndex4
											{
												OFFSET 10.212402 0.000000 0.000001
												CHANNELS 3 Xrotation Yrotation Zrotation
												End Site
												{
													OFFSET -5.180801 8.690506 1.388433
												}
											}
										}
									}
								}
							}
						}
					}
				}
				JOINT RightShoulder
				{
					OFFSET -17.399500 24.608795 1.168800
					CHANNELS 3 Xrotation Yrotation Zrotation
					JOINT RightArm
					{
						OFFSET -18.980635 5.765305 1.818600
						CHANNELS 3 Xrotation Yrotation Zrotation
						JOINT RightForeArm
						{
							OFFSET -49.290169 0.000000 0.000000
							CHANNELS 3 Xrotation Yrotation Zrotation
							JOINT RightHand
							{
								OFFSET -31.562012 0.000000 0.000000
								CHANNELS 3 Xrotation Yrotation Zrotation
								JOINT RightHandThumb1
								{
									OFFSET -6.133995 -4.388519 7.076070
									CHANNELS 3 Xrotation Yrotation Zrotation
									JOINT RightHandThumb2
									{
										OFFSET -6.037666 -3.485840 3.485847
										CHANNELS 3 Xrotation Yrotation Zrotation
										JOINT RightHandThumb3
										{
											OFFSET -6.496506 -3.750763 3.750761
											CHANNELS 3 Xrotation Yrotation Zrotation
											JOINT RightHandThumb4
											{
												OFFSET -5.616882 -3.242905 3.242910
												CHANNELS 3 Xrotation Yrotation Zrotation
												End Site
												{
													OFFSET 1.254608 7.132141 0.375429
												}
											}
										}
									}
								}
								JOINT RightHandIndex1
								{
									OFFSET -21.310577 -0.490082 6.209344
									CHANNELS 3 Xrotation Yrotation Zrotation
									JOINT RightHandIndex2
									{
										OFFSET -7.536453 0.000000 0.000000
										CHANNELS 3 Xrotation Yrotation Zrotation
										JOINT RightHandIndex3
										{
											OFFSET -7.512344 0.000000 0.000000
											CHANNELS 3 Xrotation Yrotation Zrotation
											JOINT RightHandIndex4
											{
												OFFSET -10.212402 0.000000 0.000001
												CHANNELS 3 Xrotation Yrotation Zrotation
												End Site
												{
													OFFSET 5.180801 8.690506 1.388433
												}
											}
										}
									}
								}
								JOINT RightHandMiddle1
								{
									OFFSET -23.373947 0.000000 0.000001
									CHANNELS 3 Xrotation Yrotation Zrotation
									JOINT RightHandMiddle2
									{
										OFFSET -6.996567 0.000000 0.000000
										CHANNELS 3 Xrotation Yrotation Zrotation
										JOINT RightHandMiddle3
										{
											OFFSET -7.015945 0.000000 0.000000
											CHANNELS 3 Xrotation Yrotation Zrotation
											JOINT RightHandMiddle4
											{
												OFFSET -7.721573 0.000000 0.000000
												CHANNELS 3 Xrotation Yrotation Zrotation
												End Site
												{
													OFFSET 4.651108 6.158463 0.251582
												}
											}
										}
									}
								}
								JOINT RightHandRing1
								{
									OFFSET -22.726120 -0.094986 -6.500475
									CHANNELS 3 Xrotation Yrotation Zrotation
									JOINT RightHandRing2
									{
										OFFSET -6.408615 0.000000 0.000000
										CHANNELS 3 Xrotation Yrotation Zrotation
										JOINT RightHandRing3
										{
											OFFSET -6.150223 0.000000 0.000000
											CHANNELS 3 Xrotation Yrotation Zrotation
											JOINT RightHandRing4
											{
												OFFSET -6.145386 0.000000 0.000000
												CHANNELS 3 Xrotation Yrotation Zrotation
												End Site
												{
													OFFSET 3.671402 4.923981 -0.202372
												}
											}
										}
									}
								}
								JOINT RightHandPinky1
								{
									OFFSET -18.920792 -0.453171 -11.426712
									CHANNELS 3 Xrotation Yrotation Zrotation
									JOINT RightHandPinky2
									{
										OFFSET -4.919586 0.000000 0.000000
										CHANNELS 3 Xrotation Yrotation Zrotation
										JOINT RightHandPinky3
										{
											OFFSET -5.233047 0.000000 0.000000
											CHANNELS 3 Xrotation Yrotation Zrotation
											JOINT RightHandPinky4
											{
												OFFSET -5.571716 0.000000 0.000000
												CHANNELS 3 Xrotation Yrotation Zrotation
												End Site
												{
													OFFSET 3.459808 4.342407 -0.466164
												}
											}
										}
									}
								}
							}
						}
					}
				}
			}
		}
	}
	JOINT LeftUpLeg
	{
		OFFSET 19.899099 -7.885101 -3.429500
		CHANNELS 3 Xrotation Yrotation Zrotation
		JOINT LeftLeg
		{
			OFFSET 1.745560 -36.997807 10.304700
			CHANNELS 3 Xrotation Yrotation Zrotation
			JOINT LeftFoot
			{
				OFFSET -1.745558 -29.803308 -13.615400
				CHANNELS 3 Xrotation Yrotation Zrotation
				JOINT LeftToeBase
				{
					OFFSET 1.181900 -18.539904 15.226099
					CHANNELS 3 Xrotation Yrotation Zrotation
					JOINT LeftToe_End
					{
						OFFSET -0.863701 1.402801 16.534700
						CHANNELS 3 Xrotation Yrotation Zrotation
						End Site
						{
							OFFSET 0.000000 16.616566 0.000000
						}
					}
				}
			}
		}
	}
	JOINT RightUpLeg
	{
		OFFSET -19.899099 -7.885101 -3.429500
		CHANNELS 3 Xrotation Yrotation Zrotation
		JOINT RightLeg
		{
			OFFSET -1.745560 -36.997807 10.304700
			CHANNELS 3 Xrotation Yrotation Zrotation
			JOINT RightFoot
			{
				OFFSET 1.745558 -29.803308 -13.615400
				CHANNELS 3 Xrotation Yrotation Zrotation
				JOINT RightToeBase
				{
					OFFSET -1.181900 -18.539904 15.226099
					CHANNELS 3 Xrotation Yrotation Zrotation
					JOINT RightToe_End
					{
						OFFSET 0.863701 1.402801 16.534700
						CHANNELS 3 Xrotation Yrotation Zrotation
						End Site
						{
							OFFSET 0.000000 16.616566 0.000000
						}
					}
				}
			}
		}
	}
}
MOTION
Frames: 5
Frame Time: 0.033333
1.315515 74.671753 1.524033 -13.338448 5.992449 -0.199123 15.310759 -14.887114 -0.144122 15.801281 -1.116561 3.546151 15.883955 -2.331881 3.395057 -8.359276 7.382236 -0.229639 -7.160792 0.097368 5.751887 -0.000001 0.000000 -0.000000 -64.583059 -19.340538 -16.729578 -2.002988 -2.164516 -66.834835 -91.526871 20.497121 -76.140367 -24.638307 8.851312 18.101938 0.699123 9.503391 -2.418111 5.975201 12.647535 1.348372 -23.873543 -17.664290 1.604942 0.000000 -0.000001 -0.000001 -7.938281 1.609104 -6.495678 2.210569 4.583639 -51.475188 0.883822 3.096040 -31.858068 0.000002 -0.000001 0.000001 1.254256 -0.073749 -17.945743 3.754121 5.463593 -68.965356 5.298505 9.638327 -33.747015 -0.000003 -0.000001 0.000003 10.058162 -1.800654 -20.644701 1.774290 4.200422 -45.782041 1.632205 4.057850 -43.809404 -0.000000 -0.000000 0.000001 9.479728 -1.289838 -20.785553 0.709502 2.796367 -28.467014 0.713999 2.804762 -28.559806 0.000001 -0.000000 0.000001 11.061747 -34.989153 6.335394 -47.342380 84.054869 69.643334 -116.367395 47.187229 102.193379 7.998811 19.682899 -23.466051 13.942538 -4.273622 -5.300317 7.113429 -20.767479 -2.619381 -3.463384 -24.899774 -18.660516 -0.000000 0.000001 -0.000003 0.357825 -5.832648 5.175890 0.094267 -0.933727 11.539923 0.777619 -2.578508 33.559902 -0.000000 -0.000003 -0.000001 3.764058 -12.080457 1.143808 5.714340 -4.535920 103.133473 3.160515 -4.410594 71.234946 -0.000000 -0.000001 -0.000006 -12.155597 -12.623940 9.228404 6.566993 -4.248495 114.232387 3.755071 -4.569074 78.819755 -0.000001 -0.000000 -0.000005 -17.635858 -10.496809 3.325348 4.993676 -4.645206 94.147812 3.647259 -4.546563 77.463395 0.000001 -0.000000 0.000007 -16.547079 15.438538 10.495591 81.986463 -7.244154 -1.202749 -18.462816 -4.886151 0.341702 -20.244986 -3.977925 10.157149 0.000000 0.000000 0.000000 -26.406696 -4.858092 8.419184 61.986644 1.964117 -4.424944 -21.339835 3.795311 -4.595965 -0.667735 0.932145 1.009576 0.000000 0.000001 0.000000 
6.408453 75.642914 6.922045 -12.910605 4.295101 -0.503571 14.890934 -13.788280 -0.103882 15.780326 -1.013541 3.509441 15.861871 -2.229046 3.361470 -8.225092 7.616051 -0.219290 -6.636102 0.533949 5.499521 -0.000001 0.000000 -0.000000 -64.332288 -18.581992 -16.037151 -1.826757 -2.592037 -67.318638 -91.926478 21.122821 -75.843370 -24.013632 9.286637 17.594873 0.699129 9.503388 -2.418114 5.975203 12.647535 1.348371 -23.873540 -17.664288 1.604938 -0.000000 0.000004 0.000000 -7.938276 1.609101 -6.495674 2.210561 4.583634 -51.475185 0.883819 3.096043 -31.858072 -0.000003 -0.000001 -0.000006 1.254258 -0.073756 -17.945745 3.754124 5.463590 -68.965363 5.298505 9.638326 -33.747015 -0.000004 -0.000000 0.000007 10.058163 -1.800657 -20.644699 1.774291 4.200421 -45.782044 1.632202 4.057850 -43.809414 0.000003 0.000001 0.000004 9.479728 -1.289843 -20.785553 0.709500 2.796367 -28.467016 0.714003 2.804765 -28.559796 -0.000002 -0.000001 -0.000001 10.597943 -34.075708 5.941313 -46.331536 82.961506 68.790605 -114.852486 45.699361 102.037398 10.117168 19.566655 -23.967289 13.942538 -4.273619 -5.300315 7.113427 -20.767475 -2.619382 -3.463383 -24.899779 -18.660519 -0.000002 0.000005 0.000001 0.357823 -5.832646 5.175890 0.094268 -0.933726 11.539920 0.777620 -2.578510 33.559895 -0.000001 0.000000 -0.000001 3.764059 -12.080457 1.143808 5.714339 -4.535919 103.133480 3.160514 -4.410592 71.234939 0.000001 0.000001 -0.000006 -12.155593 -12.623940 9.228408 6.566990 -4.248495 114.232394 3.755068 -4.569076 78.819761 0.000000 -0.000000 0.000000 -17.635852 -10.496805 3.325352 4.993666 -4.645206 94.147812 3.647260 -4.546562 77.463395 -0.000000 -0.000000 0.000002 -29.119043 5.179296 16.976435 80.910100 -7.613351 -3.813186 -17.048753 -4.207417 -2.822490 -3.010883 1.327877 3.957493 0.000002 -0.000001 0.000000 -20.195276 -1.051894 4.377499 61.716135 5.402418 -3.568507 -28.272040 2.699131 -2.209561 -0.667725 0.932173 1.009576 0.000000 0.000000 0.000000 
10.963372 76.297096 12.148176 -12.450292 2.453488 -0.712031 14.014870 -12.689681 -0.523118 15.842718 -0.901875 3.506798 15.928539 -2.117871 3.345453 -8.078510 7.847746 -0.187200 -6.359707 0.710193 5.522073 -0.000001 -0.000001 -0.000000 -64.048303 -17.773573 -15.462416 -1.852174 -3.580668 -67.601442 -92.307227 19.626525 -75.752125 -25.632155 9.421033 17.667490 0.699126 9.503394 -2.418109 5.975201 12.647533 1.348371 -23.873536 -17.664288 1.604941 -0.000001 0.000003 0.000000 -7.938282 1.609108 -6.495679 2.210560 4.583639 -51.475181 0.883821 3.096032 -31.858065 -0.000002 -0.000002 -0.000001 1.254254 -0.073750 -17.945743 3.754125 5.463592 -68.965356 5.298509 9.638324 -33.747012 0.000001 -0.000000 0.000002 10.058160 -1.800649 -20.644698 1.774292 4.200417 -45.782044 1.632203 4.057850 -43.809407 0.000001 0.000000 0.000004 9.479726 -1.289839 -20.785550 0.709499 2.796367 -28.467016 0.714004 2.804763 -28.559796 -0.000003 -0.000002 -0.000001 10.191230 -33.331928 5.606748 -46.076521 82.407093 68.530525 -114.974541 46.094829 102.546664 9.720023 18.903501 -24.136239 13.942538 -4.273617 -5.300315 7.113430 -20.767472 -2.619383 -3.463379 -24.899779 -18.660521 0.000001 0.000001 0.000003 0.357824 -5.832642 5.175894 0.094266 -0.933730 11.539920 0.777620 -2.578511 33.559902 -0.000001 -0.000001 -0.000001 3.764057 -12.080457 1.143806 5.714342 -4.535921 103.133473 3.160514 -4.410593 71.234939 0.000000 0.000000 -0.000004 -12.155595 -12.623939 9.228407 6.566990 -4.248493 114.232387 3.755069 -4.569076 78.819755 -0.000000 -0.000001 -0.000002 -17.635856 -10.496805 3.325353 4.993673 -4.645205 94.147812 3.647258 -4.546560 77.463395 -0.000000 0.000001 0.000006 -38.205517 -3.518364 20.939238 74.475823 -9.187651 -5.120108 -14.673384 -1.323553 -5.845460 5.067681 2.034999 -2.515049 -0.000001 0.000000 0.000000 -13.953033 2.260594 0.163577 60.031072 8.496687 -2.776231 -33.856124 1.781471 -0.318161 -0.667736 0.932150 1.009577 -0.000000 -0.000000 0.000000 
14.737633 76.661842 16.818842 -11.989536 0.557672 -0.738181 12.956199 -11.584434 -1.315082 15.899342 -0.750360 3.554234 15.992709 -1.956896 3.372640 -7.926476 8.053117 -0.143471 -6.264228 0.758760 5.745595 0.000001 -0.000000 0.000000 -63.729060 -18.177075 -14.383656 -1.989345 -3.308493 -67.783719 -92.884214 22.814428 -75.169729 -23.080867 9.066552 17.007490 0.699125 9.503390 -2.418113 5.975203 12.647535 1.348372 -23.873543 -17.664290 1.604941 -0.000003 0.000004 0.000002 -7.938279 1.609104 -6.495678 2.210561 4.583638 -51.475185 0.883826 3.096037 -31.858062 0.000002 -0.000003 0.000001 1.254253 -0.073750 -17.945747 3.754126 5.463588 -68.965356 5.298508 9.638328 -33.747015 0.000001 -0.000001 0.000001 10.058162 -1.800656 -20.644698 1.774291 4.200421 -45.782041 1.632206 4.057846 -43.809407 0.000004 0.000000 0.000008 9.479727 -1.289838 -20.785551 0.709498 2.796370 -28.467014 0.714002 2.804762 -28.559803 0.000001 -0.000002 -0.000004 9.800044 -32.464121 5.280404 -45.025959 81.574711 67.389549 -114.844850 46.173578 102.962704 9.350756 18.244289 -24.289222 13.942538 -4.273621 -5.300315 7.113432 -20.767479 -2.619383 -3.463381 -24.899779 -18.660519 0.000001 0.000000 0.000002 0.357823 -5.832646 5.175890 0.094267 -0.933727 11.539922 0.777620 -2.578511 33.559895 -0.000000 0.000000 0.000001 3.764058 -12.080456 1.143806 5.714340 -4.535919 103.133480 3.160514 -4.410590 71.234946 -0.000000 -0.000000 -0.000001 -12.155594 -12.623937 9.228407 6.566990 -4.248495 114.232387 3.755068 -4.569076 78.819755 -0.000000 -0.000001 -0.000003 -17.635858 -10.496805 3.325348 4.993675 -4.645202 94.147812 3.647258 -4.546559 77.463395 -0.000001 -0.000001 0.000000 -41.885848 -9.247125 24.198191 62.799129 -8.416027 -5.663102 -12.751541 -0.777892 -7.510790 6.085797 1.005425 -5.042731 -0.000000 0.000000 0.000000 -8.361299 5.148326 -4.170711 57.527944 9.808188 -2.156337 -38.033990 1.825687 2.277798 -0.667743 0.932161 1.009580 0.000000 -0.000000 -0.000000 
17.795076 76.932343 20.679518 -11.555957 -1.218923 -0.629389 11.845692 -10.538582 -2.325219 15.990805 -0.553029 3.655818 16.095180 -1.734747 3.442406 -7.767207 8.232646 -0.045624 -6.291751 0.786111 6.057566 0.000000 0.000000 0.000001 -63.478446 -18.271803 -13.688415 -2.010521 -3.400736 -68.217471 -93.438675 23.463226 -74.694491 -22.498211 9.134984 16.653953 0.699125 9.503392 -2.418109 5.975203 12.647534 1.348372 -23.873543 -17.664293 1.604939 0.000001 0.000001 -0.000002 -7.938277 1.609109 -6.495678 2.210565 4.583636 -51.475185 0.883815 3.096040 -31.858068 0.000002 -0.000001 -0.000002 1.254253 -0.073749 -17.945743 3.754121 5.463595 -68.965356 5.298511 9.638325 -33.747012 0.000004 0.000000 0.000003 10.058162 -1.800653 -20.644701 1.774293 4.200417 -45.782041 1.632205 4.057849 -43.809407 -0.000001 0.000000 0.000008 9.479728 -1.289838 -20.785551 0.709499 2.796368 -28.467013 0.714001 2.804763 -28.559799 -0.000003 -0.000000 -0.000001 9.400953 -31.505429 4.949545 -43.048534 80.593739 65.434647 -114.705309 46.333497 103.274175 8.954523 17.772791 -24.355270 13.942535 -4.273617 -5.300314 7.113427 -20.767475 -2.619381 -3.463382 -24.899784 -18.660514 -0.000001 -0.000001 0.000004 0.357823 -5.832641 5.175896 0.094268 -0.933726 11.539919 0.777620 -2.578515 33.559895 -0.000000 -0.000001 -0.000001 3.764057 -12.080456 1.143808 5.714340 -4.535918 103.133473 3.160515 -4.410593 71.234939 -0.000000 -0.000000 -0.000001 -12.155595 -12.623938 9.228409 6.566989 -4.248493 114.232387 3.755069 -4.569075 78.819761 0.000001 -0.000000 -0.000005 -17.635861 -10.496807 3.325354 4.993677 -4.645207 94.147806 3.647259 -4.546562 77.463395 -0.000001 0.000001 0.000006 -41.783607 -8.865142 27.219050 48.096488 -8.281278 -5.317866 -10.210567 -1.241786 -6.156231 4.930226 -0.030998 -5.174894 -0.000000 0.000000 -0.000001 -3.652016 7.419062 -7.934302 54.651878 10.728788 -1.922366 -40.766705 1.413749 4.552786 -0.667719 0.932170 1.009577 0.000000 0.000002 0.000000 
